<svg width="200" height="200" viewBox="0 0 200 200" fill="none" xmlns="http://www.w3.org/2000/svg">
<rect width="200" height="200" rx="20" fill="#F0F0F0"/>
<path d="M91.5411 98.5203L68.9212 82.008L90.249 117.613L170 51.8202L91.5411 98.5203ZM81.8374 142.185C58.3479 142.185 39.3062 123.18 39.3062 99.7364C39.3062 76.2932 58.3479 57.2881 81.8374 57.2881C92.2384 57.2881 101.763 61.0198 109.153 67.2076L115.115 60.1077C106.103 52.5581 94.496 48 81.8374 48C53.2537 48 30 71.209 30 99.7364C30 128.264 53.2537 151.473 81.8374 151.473C96.6605 151.473 110.04 145.222 119.497 135.233L112.75 128.873C104.997 137.065 94.0191 142.185 81.8374 142.185ZM81.8374 129.881C65.1566 129.881 51.6344 116.385 51.6344 99.7366C51.6344 83.0883 65.1566 69.5921 81.8374 69.5921C89.2235 69.5921 95.9835 72.2469 101.231 76.6412L105.707 71.3108C99.2434 65.8952 90.9172 62.6258 81.8374 62.6258C61.3344 62.6258 44.6541 79.2735 44.6541 99.7366C44.6541 120.199 61.3344 136.847 81.8374 136.847C92.4698 136.847 102.067 132.362 108.85 125.198L103.775 120.414C98.2689 126.231 90.4883 129.881 81.8374 129.881Z" fill="#236BFD"/>
</svg>
