<svg width="200" height="200" viewBox="0 0 200 200" fill="none" xmlns="http://www.w3.org/2000/svg">
<rect width="200" height="200" rx="20" fill="#F0F0F0"/>
<path d="M109.182 96.4063H123.641V83.3465H109.182V96.4063ZM92.0976 96.4063H106.557V83.3465H92.0976V96.4063ZM75.017 96.4063H89.4725V83.3465H75.0131V96.4063H75.017ZM57.9287 96.4063H72.388V83.3465H57.9287V96.4063ZM40.8482 96.4063H55.3036V83.3465H40.8482V96.4063ZM57.9326 80.733H72.388V67.6733H57.9287L57.9326 80.733ZM75.017 80.733H89.4725V67.6733H75.0131V80.733H75.017ZM92.0976 80.733H106.557V67.6733H92.0976V80.733ZM92.0976 65.0598H106.557V52H92.0976V65.0598ZM151.087 86.973C150.368 81.746 147.437 77.2149 142.106 73.1168L139.044 71.0871L136.995 74.1374C134.385 78.0577 133.071 83.4935 133.504 88.7089C133.697 90.5414 134.304 93.8238 136.202 96.7079C134.308 97.7208 130.573 99.1165 125.613 99.0198H30.5411L30.3517 100.11C29.4625 105.349 29.4779 121.695 40.16 134.26C48.275 143.809 60.4456 148.653 76.3315 148.653C110.763 148.653 136.237 132.899 148.164 104.262C152.854 104.355 162.96 104.289 168.152 94.4385C168.283 94.2142 168.597 93.6188 169.501 91.7515L170 90.7308L167.081 88.7939C163.922 86.6946 156.67 85.9253 151.087 86.973Z" fill="black"/>
</svg>
