<svg width="200" height="200" viewBox="0 0 200 200" fill="none" xmlns="http://www.w3.org/2000/svg">
<rect width="200" height="200" rx="20" fill="#F0F0F0"/>
<path d="M169.966 103.34C169.982 97.6328 168.239 92.06 164.977 87.3859C161.715 82.7117 157.094 79.165 151.747 77.2318C152.233 74.7421 152.478 72.2111 152.479 69.674C152.475 61.281 149.822 53.1054 144.901 46.3215C139.98 39.5377 133.045 34.4949 125.091 31.9177C117.138 29.3404 108.575 29.3614 100.634 31.9776C92.6933 34.5938 85.7826 39.6706 80.8949 46.4785C77.2877 43.6805 72.8719 42.1372 68.3144 42.0817C63.7569 42.0262 59.3051 43.4615 55.6314 46.1709C51.9578 48.8802 49.2618 52.7164 47.9506 57.1002C46.6393 61.4839 46.7841 66.1772 48.3631 70.471C43.0092 72.4287 38.38 75.9849 35.0975 80.6619C31.8149 85.3389 30.0362 90.9127 30.0002 96.6346C29.9777 102.369 31.729 107.969 35.0123 112.661C38.2956 117.353 42.9488 120.904 48.3289 122.826C47.2187 128.562 47.3861 134.474 48.8188 140.138C50.2515 145.801 52.9142 151.077 56.6159 155.585C60.3175 160.094 64.9667 163.725 70.2299 166.217C75.4932 168.709 81.2402 170.001 87.0593 170C93.3228 170.005 99.4973 168.507 105.067 165.629C110.637 162.751 115.441 158.577 119.078 153.455C122.673 156.285 127.091 157.857 131.658 157.933C136.225 158.009 140.692 156.584 144.379 153.875C148.065 151.167 150.769 147.323 152.08 142.928C153.39 138.534 153.235 133.829 151.637 129.532C156.995 127.573 161.629 124.013 164.912 119.33C168.195 114.648 169.971 109.067 170 103.34" fill="white"/>
<path d="M85.0272 90.2861L115.657 104.309L146.554 77.1218C148.118 69.283 146.938 61.1421 143.214 54.0761C139.49 47.0102 133.45 41.4529 126.116 38.3442C118.782 35.2356 110.603 34.7664 102.964 37.0161C95.3245 39.2657 88.6936 44.0961 84.1926 50.6903L79.0476 77.486L85.0272 90.2861Z" fill="#FEC514"/>
<path d="M53.3303 122.86C51.7349 130.736 52.9049 138.923 56.6411 146.03C60.3773 153.138 66.4492 158.726 73.8245 161.846C81.1999 164.965 89.4231 165.423 97.0974 163.142C104.771 160.861 111.421 155.982 115.917 149.333L121.014 122.647L114.173 109.593L83.4607 95.5079L53.3303 122.86Z" fill="#00BFB3"/>
<path d="M53.1182 69.6328L74.1219 74.6072L78.7194 50.6422C75.8638 48.4712 72.3851 47.2865 68.8034 47.2654C65.2218 47.2442 61.7295 48.3876 58.8485 50.5247C55.9675 52.6617 53.8525 55.6777 52.8196 59.1219C51.7868 62.566 51.8916 66.2534 53.1182 69.6328Z" fill="#F04E98"/>
<path d="M51.312 74.6484C46.7746 76.1538 42.8123 79.0323 39.9686 82.889C37.1249 86.7456 35.5392 91.3915 35.429 96.1891C35.3189 100.987 36.6896 105.701 39.3532 109.686C42.0169 113.669 45.8429 116.729 50.3063 118.442L79.7251 91.7084L74.3271 80.145L51.312 74.6484Z" fill="#1BA9F5"/>
<path d="M121.295 149.333C123.738 151.223 126.661 152.386 129.73 152.691C132.8 152.996 135.892 152.43 138.657 151.057C141.422 149.684 143.747 147.56 145.37 144.925C146.992 142.291 147.846 139.252 147.833 136.155C147.841 134.184 147.503 132.228 146.834 130.377L125.865 125.45L121.295 149.333Z" fill="#93C90E"/>
<path d="M125.564 119.933L148.654 125.354C153.263 123.794 157.271 120.828 160.121 116.872C162.972 112.914 164.521 108.162 164.554 103.279C164.55 98.5702 163.119 93.9744 160.453 90.1016C157.787 86.2286 154.01 83.2617 149.626 81.5947L119.434 108.164L125.564 119.933Z" fill="#0077CC"/>
</svg>
