<svg width="200" height="200" viewBox="0 0 200 200" fill="none" xmlns="http://www.w3.org/2000/svg">
<rect width="200" height="200" rx="20" fill="#F0F0F0"/>
<path d="M45.3283 152.356C84.8732 186.228 141.035 166.007 134.923 144.744C135.675 144.271 142.023 134.937 127.468 123.221C104.569 112.537 84.4628 110.324 62.9926 116.52L55.0618 119.133C51.4604 120.586 48.5768 122.016 45.4677 123.89C43.1829 125.268 39.1071 127.954 37.2487 129.73C35.1075 131.776 31.5542 134.512 30 136.833C30.2224 137.666 30.983 138.378 31.5563 139.084C33.6758 141.69 38.4908 147.046 40.7932 148.884C41.9657 149.821 43.9485 152.039 45.3283 152.356V152.356Z" fill="#45BA41"/>
<path d="M57.1571 123.947C59.8172 126.637 64.2115 129.003 66.1022 133.981C60.6103 134.266 40.2914 134.694 36.2064 136.199L49.8225 135.66C50.9542 135.134 62.8219 135.465 68.9727 135.911C69.3851 138.87 62.2553 150.19 59.5869 155.259C65.1401 149.817 69.9468 140.704 72.611 136.346C72.775 136.077 83.6562 137.206 96.2471 138.81C96.9798 138.904 80.254 162.739 80.9963 162.836C81.7172 162.929 99.9066 139.284 100.634 139.38C105.855 140.07 111.189 140.821 116.032 141.571C116.926 141.71 104.794 160.569 105.651 160.707C106.483 160.841 120.305 142.254 121.095 142.387C127.716 143.501 132.733 144.563 134.102 145.363C134.865 144.036 132.505 143.629 134.015 141.662C132.111 141.411 128.908 140.897 124.731 140.239C123.918 140.111 121.635 131.723 120.751 131.585C119.917 131.455 122.394 139.984 121.5 139.846C109.822 138.048 91.3369 135.268 74.3601 133.967L69.5011 133.942C68.7507 132.28 65.5949 129.691 64.2526 128.361C63.493 127.609 62.2016 126.61 61.1862 125.867C60.3266 125.237 58.8832 124.546 58.1761 123.634C56.7927 123.694 57.8057 123.429 57.1571 123.947V123.947Z" fill="#66ED62"/>
<path d="M106.33 57.5269C99.5508 56.8294 97.0749 57.3821 91.1922 58.8393C57.0318 67.3015 59.791 100.767 63.9434 105.646C66.1286 120.686 68.972 128.592 73.2345 134.856C74.4884 136.698 75.7647 139.048 77.75 140.87L78.8606 140.284L79.6634 140.897C88.0547 134.75 91.1881 133.127 102.721 129.522C116.683 125.157 137.033 120.589 142.104 101.029C143.334 95.7597 144.113 89.8527 142.78 84.5505C136.888 67.6062 119.127 58.8436 106.33 57.5269V57.5269Z" fill="#6A4101"/>
<path d="M93.1993 82.6185C87.2606 90.7999 88.7232 105.151 96.6094 109.877C109.767 117.763 127.687 99.461 124.916 82.3151C122.721 68.7323 102.338 68.1464 93.1993 82.6185V82.6185Z" fill="#F4F4F4"/>
<path d="M130.806 126.212C133.551 129.477 140.152 141.072 134.096 144.274C138.463 171.529 87.8844 172.629 68.3186 165.877C116.69 190.95 164.132 149.623 133.975 122.673C133.125 123.249 132.912 123.733 132.194 124.515C131.579 125.184 131.045 125.427 130.806 126.212V126.212Z" fill="black"/>
<path d="M117.55 59.8032C115.836 63.9238 121.554 64.4473 122.837 62.6633C125.897 58.6521 136.854 34.8788 138.075 29.6359C143.578 37.5544 153.675 69.7614 170 69.7614C169.942 67.1499 163.322 60.2634 161.145 57.8216C153.28 48.2166 146.667 40.2792 139.933 29.8284C139.442 28.9258 138.748 27.4927 138.075 27C131.705 39.0396 125.567 48.6974 117.55 59.8032V59.8032Z" fill="#2C2C2C"/>
<path d="M84.5461 61.2677C86.6895 63.8478 89.3344 61.8237 90.6183 60.968L90.6844 58.6318C90.0599 50.3365 89.8678 41.9081 89.1632 33.4435C83.1028 36.6502 55.9094 43.9431 54.6025 49.5523C64.0227 55.8605 82.6349 37.5101 87.9916 36.0794C87.9916 46.3923 86.6429 53.4437 84.5461 61.2677Z" fill="#2C2C2C"/>
<path d="M79.6754 140.855C79.6157 141.066 110.565 128.909 123.364 128.314C126.145 127.399 130.614 126.916 127.844 123.671C126.915 122.583 125.28 122.188 124.022 121.668C120.175 123.664 111.121 126.943 102.721 129.522C94.6224 131.26 84.2256 136.636 79.6754 140.855V140.855Z" fill="#273111"/>
<path d="M104.265 93.681C104.331 98.1638 106.232 102.319 110.828 103.569C119.189 104.538 121.84 95.8643 119.495 89.3076C117.105 83.4266 104.954 80.6131 104.265 93.681V93.681Z" fill="#1D1D1D"/>
<path d="M78.7339 82.7509C68.2427 97.022 65.9442 124.587 78.1795 138.145C76.8916 106.94 86.8685 81.8909 86.8896 81.3561C84.5445 81.2198 79.7075 84.5456 78.7339 82.7509V82.7509Z" fill="#804E1B"/>
<path d="M77.75 140.87C74.5087 136.385 64.5742 122.143 64.9643 101.41L63.0963 100.715C63.1197 108.161 66.3814 128.975 77.75 140.87V140.87Z" fill="#7D5103"/>
<path d="M66.584 101.814C67.7998 100.26 69.0393 97.0214 69.5574 95.032C72.688 79.0821 90.2359 71.3898 84.9912 70.7865C73.8257 64.2647 67.4176 70.5593 64.2147 72.9271C60.317 75.8087 57.4264 80.5848 56.9618 85.8669C56.3352 92.9909 61.1973 101.918 66.584 101.814Z" fill="white"/>
<path d="M70.0461 93.5159C69.4141 93.3758 73.355 85.6367 75.4312 82.6552C70.2484 79.0062 66.3023 80.8688 65.0601 83.9415C63.881 86.8583 63.8729 92.5184 70.0461 93.5159Z" fill="#1D1D1D"/>
<path d="M105.258 89.6764L113.874 89.5429L119.495 89.3076C117.679 85.3686 113.147 83.1111 109.025 85.2279C107.306 86.1105 105.88 87.5255 105.258 89.6764Z" fill="#4B4B4B"/>
<path d="M117.848 104.314C110.511 112.159 101.672 113.713 95.1067 108.829C103.085 115.479 113.395 111.375 118.701 105.555C123.485 100.307 126.902 92.3895 125.044 82.8472C125.544 91.1667 123.32 98.462 117.848 104.314Z" fill="#3B2501"/>
<path d="M123.88 121.8C126.102 122.105 129.444 124.727 130.806 126.212C133.15 125.202 139.239 114.136 139.833 107.192C139.086 107.94 138.616 109.124 137.956 110.088C137.32 111.019 136.767 111.685 136.06 112.562C134.499 114.495 125.612 120.134 123.88 121.8Z" fill="#291B00"/>
<path d="M65.533 83.1336C68.9737 82.1136 73.2825 83.1301 75.2037 82.7192C73.6787 81.5367 69.0176 78.419 65.533 83.1336Z" fill="#535353"/>
<path d="M77.75 140.87C78.4329 140.521 78.6957 140.338 78.8606 140.284C79.0985 140.466 79.4337 140.691 79.6122 140.858C80.3216 140.2 81.8878 139.201 82.4583 138.486L78.4344 139.044L76.3273 138.683C76.5646 139.275 77.3647 140.239 77.75 140.87Z" fill="#977630"/>
<path d="M61.927 99.8684C58.5686 94.6431 50.5004 82.3282 68.482 69.87C50.0553 81.4121 56.6547 94.5978 61.927 99.8684Z" fill="#543617"/>
</svg>
