<svg width="200" height="200" viewBox="0 0 200 200" fill="none" xmlns="http://www.w3.org/2000/svg">
    <rect width="200" height="200" rx="20" fill="#F0F0F0"/>
    <path fill-rule="evenodd" clip-rule="evenodd"
          d="M40.5655 89.8374C40.2928 89.8374 40.2247 89.701 40.361 89.4965L41.7924 87.6561C41.9288 87.4516 42.2696 87.3153 42.5423 87.3153H66.8767C67.1494 87.3153 67.2175 87.5198 67.0812 87.7243L65.9224 89.4965C65.7861 89.701 65.4453 89.9055 65.2408 89.9055L40.5655 89.8374Z"
          fill="#007d9c"/>
    <path fill-rule="evenodd" clip-rule="evenodd"
          d="M30.2727 96.1084C30 96.1084 29.9318 95.9721 30.0682 95.7676L31.4996 93.9272C31.6359 93.7227 31.9767 93.5864 32.2494 93.5864H63.3321C63.6047 93.5864 63.7411 93.7909 63.6729 93.9953L63.1276 95.6313C63.0594 95.9039 62.7868 96.0403 62.5141 96.0403L30.2727 96.1084Z"
          fill="#007d9c"/>
    <path fill-rule="evenodd" clip-rule="evenodd"
          d="M46.7684 102.38C46.4957 102.38 46.4276 102.175 46.5639 101.971L47.5182 100.266C47.6545 100.062 47.9272 99.8575 48.1998 99.8575H61.8326C62.1052 99.8575 62.2416 100.062 62.2416 100.335L62.1052 101.971C62.1052 102.243 61.8326 102.448 61.6281 102.448L46.7684 102.38Z"
          fill="#007d9c"/>
    <path fill-rule="evenodd" clip-rule="evenodd"
          d="M117.522 88.6104C113.228 89.7011 110.297 90.519 106.071 91.6096C105.048 91.8823 104.98 91.9505 104.094 90.928C103.072 89.7692 102.322 89.0194 100.89 88.3378C96.596 86.2247 92.438 86.8382 88.5527 89.3602C83.9175 92.3594 81.5318 96.7901 81.6 102.311C81.6681 107.764 85.4171 112.263 90.8021 113.013C95.4372 113.627 99.3225 111.991 102.39 108.514C103.003 107.764 103.549 106.946 104.23 105.992C101.776 105.992 98.7091 105.992 91.0747 105.992C89.6433 105.992 89.3025 105.106 89.7796 103.947C90.6657 101.834 92.3017 98.2897 93.256 96.5174C93.4605 96.1085 93.9376 95.4268 94.9601 95.4268H119.772C119.635 97.2672 119.635 99.1077 119.363 100.948C118.613 105.856 116.772 110.355 113.773 114.308C108.865 120.784 102.458 124.805 94.3466 125.896C87.6665 126.782 81.4636 125.487 76.0105 121.397C70.9664 117.58 68.1035 112.536 67.3537 106.265C66.4676 98.835 68.6489 92.155 73.1477 86.2929C77.9873 79.9536 84.3947 75.932 92.2335 74.5005C98.6409 73.3418 104.776 74.0916 110.297 77.8406C113.91 80.2263 116.5 83.4982 118.204 87.4517C118.613 88.0651 118.34 88.4059 117.522 88.6104V88.6104Z"
          fill="#007d9c"/>
    <path d="M140.084 126.305C133.882 126.169 128.224 124.396 123.453 120.307C119.431 116.83 116.909 112.4 116.091 107.151C114.864 99.4485 116.977 92.6321 121.612 86.5655C126.588 80.0218 132.586 76.6136 140.698 75.1822C147.651 73.9552 154.194 74.6369 160.125 78.6585C165.51 82.3394 168.85 87.3153 169.736 93.859C170.894 103.061 168.236 110.559 161.897 116.967C157.398 121.534 151.877 124.396 145.538 125.692C143.697 126.032 141.857 126.1 140.084 126.305V126.305ZM156.307 98.7668C156.239 97.8807 156.239 97.1991 156.103 96.5174C154.876 89.7692 148.673 85.952 142.198 87.4516C135.858 88.8831 131.769 92.9047 130.269 99.3121C129.042 104.629 131.632 110.014 136.54 112.195C140.289 113.831 144.038 113.627 147.651 111.786C153.036 108.991 155.967 104.629 156.307 98.7668V98.7668Z"
          fill="#007d9c"/>
</svg>
