<svg width="200" height="200" viewBox="0 0 200 200" fill="none" xmlns="http://www.w3.org/2000/svg">
<rect width="200" height="200" rx="20" fill="#F0F0F0"/>
<path d="M54.3593 48.0018C44.1699 48.0135 37.4315 48.8389 37.4315 48.8389C37.4315 48.8389 74.6873 47.0508 104.532 59.1338C105.547 63.6717 108.599 71.2294 110.243 74.8623C105.539 78.1145 100.234 81.1733 99.4087 92.0194C98.5829 102.865 107.908 112.405 119.471 112.699C130.451 113.284 138.038 113.367 147.233 118.135C156.01 122.988 163.207 137.776 163.919 151.075C164.689 141.208 160.985 119.987 143.705 113.543C167.852 117.769 169.981 135.666 169.982 135.674C169.982 135.674 171.782 115.009 139.315 110.245C135.2 109.641 129.996 109.176 124.732 109.163C98.7104 109.507 97.7618 79.1501 117.371 77.6174C125.497 76.9469 135.2 81.3309 144.686 85.7485C144.651 86.9266 144.7 87.9735 145.474 88.9409C146.248 89.9081 149.22 90.9631 150.17 91.5081C151.12 92.0533 154.162 93.9882 156.027 96.415C156.432 95.6586 159.808 93.4606 159.808 93.4606C159.808 93.4606 158.999 93.4781 157.117 92.7747C155.235 92.0714 153.002 89.9432 152.949 89.8203C152.896 89.6971 152.861 89.5035 153.301 89.4155C153.635 89.1343 152.878 88.2198 152.544 87.8858C152.21 87.5516 149.977 83.7532 149.924 83.6654C149.871 83.5774 149.853 83.4892 149.695 83.3836C149.203 83.2252 147.039 83.6122 147.039 83.6122C147.039 83.6122 143.712 81.9781 142.565 78.4549C142.582 79.072 141.995 79.7463 142.565 81.164C140.831 80.4301 139.341 79.1784 138.166 76.0855C137.466 77.8447 138.166 78.9633 138.166 78.9633C138.166 78.9633 134.081 77.8215 133.427 74.0543C132.71 75.7455 133.427 76.7627 133.427 76.7627C133.427 76.7627 126.767 73.2878 115.702 73.2373C108.294 72.5578 106.751 59.5253 107.438 57.3314C107.438 57.3314 96.7522 51.6996 75.7177 49.2118C67.8297 48.2787 60.4733 47.9931 54.3594 48.0001L54.3593 48.0018ZM79.0084 59.2484C75.8027 59.2726 72.3616 59.3922 68.7463 59.6492C49.4662 61.0196 30 67.7681 30 67.7681C30 67.7681 69.8322 57.7461 103.236 63.6282H103.236L102.368 60.8251C102.368 60.8251 92.9012 59.2483 79.0098 59.2483L79.0084 59.2484ZM102.626 65.2184C99.2541 65.2042 88.7859 65.6281 73.0356 70.5566C53.2807 76.7379 42.0766 85.4997 42.0766 85.4997C42.0766 85.4997 71.5206 69.0595 104.754 68.1254L103.803 65.249C103.803 65.249 103.403 65.222 102.625 65.2187L102.626 65.2184ZM124.26 65.1702C133.383 68.8785 141.323 73.792 147.488 80.5643L147.488 80.565L148.968 80.4682C148.968 80.4682 140.489 70.1813 124.261 65.1702L124.26 65.1702ZM150.08 86.5184C150.377 86.5782 150.937 87.6793 151.451 88.4656C151.497 88.5295 151.543 88.5974 151.586 88.6512C151.587 88.656 151.587 88.6593 151.588 88.664C151.646 88.7469 151.705 88.833 151.76 88.902C151.788 89.0665 151.835 89.1668 151.45 89.0876C151.418 88.9185 151.362 88.8697 151.362 88.8697C151.362 88.8697 150.433 88.317 150.148 87.9251C149.863 87.5331 149.813 86.8477 149.952 86.5877C149.986 86.529 150.029 86.5081 150.081 86.5184L150.08 86.5184Z" fill="black"/>
</svg>
