<svg width="200" height="200" viewBox="0 0 200 200" fill="none" xmlns="http://www.w3.org/2000/svg">
<rect width="200" height="200" rx="20" fill="#F0F0F0"/>
<path fill-rule="evenodd" clip-rule="evenodd" d="M168.953 59.3792C169.004 59.57 169.031 59.7668 169.031 59.9644V90.686C169.031 91.0803 168.927 91.4676 168.729 91.8089C168.532 92.1501 168.248 92.433 167.906 92.6292L142.12 107.475V136.9C142.12 137.701 141.695 138.44 141 138.843L87.176 169.828C87.0528 169.898 86.9184 169.943 86.784 169.99C86.7336 170.007 86.686 170.038 86.6328 170.052C86.2565 170.151 85.861 170.151 85.4848 170.052C85.4232 170.035 85.3672 170.002 85.3084 169.979C85.1852 169.934 85.0564 169.895 84.9388 169.828L31.1256 138.843C30.7837 138.647 30.4997 138.364 30.3021 138.023C30.1045 137.681 30.0003 137.294 30 136.9V44.7352C30 44.5336 30.028 44.3376 30.0784 44.1472C30.0952 44.0828 30.1344 44.024 30.1568 43.9596C30.1988 43.842 30.238 43.7216 30.2996 43.6124C30.3416 43.5396 30.4032 43.4808 30.4536 43.4136C30.518 43.324 30.5768 43.2316 30.6524 43.1532C30.7168 43.0888 30.8008 43.0412 30.8736 42.9852C30.9548 42.918 31.0276 42.8452 31.12 42.792H31.1228L58.0308 27.2996C58.3715 27.1036 58.7577 27.0004 59.1508 27.0004C59.5439 27.0004 59.9301 27.1036 60.2708 27.2996L87.1788 42.792H87.1844C87.274 42.848 87.3496 42.918 87.4308 42.9824C87.5036 43.0384 87.5848 43.0888 87.6492 43.1504C87.7276 43.2316 87.7836 43.324 87.8508 43.4136C87.8984 43.4808 87.9628 43.5396 88.002 43.6124C88.0664 43.7244 88.1028 43.842 88.1476 43.9596C88.17 44.024 88.2092 44.0828 88.226 44.15C88.2775 44.3408 88.3039 44.5376 88.3044 44.7352V102.3L110.727 89.3896V59.9616C110.727 59.7656 110.755 59.5668 110.805 59.3792C110.825 59.312 110.861 59.2532 110.884 59.1888C110.928 59.0712 110.968 58.9508 111.029 58.8416C111.071 58.7688 111.133 58.71 111.18 58.6428C111.248 58.5532 111.304 58.4608 111.382 58.3824C111.446 58.318 111.528 58.2704 111.6 58.2144C111.684 58.1472 111.757 58.0744 111.847 58.0212H111.85L138.76 42.5288C139.101 42.3325 139.487 42.2291 139.88 42.2291C140.274 42.2291 140.66 42.3325 141 42.5288L167.908 58.0212C168.004 58.0772 168.076 58.1472 168.16 58.2116C168.23 58.2676 168.312 58.318 168.376 58.3796C168.454 58.4608 168.51 58.5532 168.578 58.6428C168.628 58.71 168.69 58.7688 168.729 58.8416C168.793 58.9508 168.83 59.0712 168.874 59.1888C168.9 59.2532 168.936 59.312 168.953 59.3792ZM164.546 89.3896V63.8424L155.129 69.2632L142.12 76.7532V102.3L164.548 89.3896H164.546ZM137.638 135.604V110.04L124.842 117.348L88.3016 138.202V164.007L137.638 135.604ZM34.4856 48.6132V135.604L83.816 164.004V138.205L58.0448 123.62L58.0364 123.614L58.0252 123.608C57.9384 123.558 57.8656 123.485 57.7844 123.424C57.7144 123.368 57.6332 123.323 57.5716 123.261L57.566 123.253C57.4932 123.183 57.4428 123.096 57.3812 123.018C57.3252 122.942 57.258 122.878 57.2132 122.799L57.2104 122.791C57.16 122.707 57.1292 122.606 57.0928 122.511C57.0564 122.427 57.0088 122.348 56.9864 122.259V122.256C56.9584 122.15 56.9528 122.038 56.9416 121.928C56.9304 121.844 56.908 121.76 56.908 121.676V121.671V61.524L43.902 54.0312L34.4856 48.616V48.6132ZM59.1536 31.83L36.734 44.7352L59.148 57.6404L81.5648 44.7324L59.148 31.83H59.1536ZM70.8128 112.369L83.8188 104.882V48.6132L74.4024 54.034L61.3936 61.524V117.793L70.8128 112.369ZM139.88 47.0592L117.464 59.9644L139.88 72.8696L162.294 59.9616L139.88 47.0592ZM137.638 76.7532L124.629 69.2632L115.212 63.8424V89.3896L128.218 96.8768L137.638 102.3V76.7532ZM86.056 134.324L118.936 115.553L135.372 106.173L112.972 93.276L87.1816 108.124L63.6756 121.657L86.056 134.324Z" fill="#FF2D20"/>
</svg>
