<svg width="200" height="200" viewBox="0 0 200 200" fill="none" xmlns="http://www.w3.org/2000/svg">
<rect width="200" height="200" rx="20" fill="#F0F0F0"/>
<path d="M99.9999 34.8C64.0551 34.8 34.7999 64.0689 34.7999 100C34.7999 135.931 64.0689 165.2 99.9999 165.2C135.931 165.2 165.2 135.931 165.2 100C165.2 64.0689 135.931 34.8 99.9999 34.8V34.8ZM99.9034 40.5931C101.018 40.622 102.078 41.0866 102.856 41.888C103.634 42.6893 104.069 43.764 104.069 44.8827C104.069 46.0204 103.617 47.1115 102.812 47.916C102.008 48.7205 100.917 49.1724 99.7792 49.1724C98.6415 49.1724 97.5505 48.7205 96.746 47.916C95.9415 47.1115 95.4896 46.0204 95.4896 44.8827C95.4893 44.3088 95.6043 43.7407 95.8276 43.212C96.0509 42.6833 96.378 42.2048 96.7896 41.8048C97.2011 41.4048 97.6888 41.0914 98.2236 40.8833C98.7585 40.6752 99.3297 40.5765 99.9034 40.5931V40.5931ZM109.724 47.6552C117.255 49.0657 124.388 52.0985 130.628 56.5431C136.869 60.9877 142.067 66.7375 145.862 73.3931L140.8 84.8138C139.931 86.7862 140.828 89.1034 142.786 89.9862L152.524 94.3034C152.826 97.3473 152.863 100.412 152.634 103.462H147.214C146.676 103.462 146.455 103.821 146.455 104.345V106.828C146.455 112.676 143.159 113.959 140.262 114.276C137.503 114.593 134.455 113.117 134.069 111.434C132.441 102.29 129.738 100.345 125.462 96.9655C130.772 93.6 136.29 88.6207 136.29 81.9724C136.29 74.7862 131.365 70.2621 128.014 68.0414C123.296 64.9379 118.083 64.3172 116.676 64.3172H60.6758C68.4193 55.6668 78.7986 49.8105 90.2068 47.6552L96.8137 54.5793C98.3034 56.1379 100.772 56.2069 102.331 54.7034L109.724 47.6552ZM48.7585 79.4069C49.8746 79.4392 50.934 79.9054 51.7119 80.7064C52.4897 81.5073 52.9245 82.58 52.9241 83.6965C52.9241 84.8342 52.4721 85.9253 51.6677 86.7298C50.8632 87.5342 49.7721 87.9862 48.6344 87.9862C47.4967 87.9862 46.4056 87.5342 45.6012 86.7298C44.7967 85.9253 44.3448 84.8342 44.3448 83.6965C44.3445 83.1226 44.4594 82.5545 44.6827 82.0258C44.906 81.4971 45.2332 81.0185 45.6447 80.6185C46.0563 80.2185 46.544 79.9052 47.0788 79.6971C47.6137 79.489 48.1849 79.3903 48.7585 79.4069V79.4069ZM151.034 79.6C152.15 79.6323 153.21 80.0985 153.988 80.8995C154.766 81.7004 155.2 82.7731 155.2 83.8896C155.2 85.0273 154.748 86.1184 153.944 86.9229C153.139 87.7273 152.048 88.1793 150.91 88.1793C149.773 88.1793 148.681 87.7273 147.877 86.9229C147.073 86.1184 146.621 85.0273 146.621 83.8896C146.62 83.3157 146.735 82.7476 146.959 82.2189C147.182 81.6902 147.509 81.2116 147.921 80.8116C148.332 80.4117 148.82 80.0983 149.355 79.8902C149.89 79.6821 150.461 79.5834 151.034 79.6V79.6ZM56.8413 80.2896H64.3172V114H49.2275C47.3639 107.456 46.7831 100.613 47.5172 93.8483L56.7585 89.7379C58.731 88.8552 59.6275 86.5517 58.7448 84.5793L56.8413 80.2896ZM88.0413 80.6483H105.848C106.772 80.6483 112.345 81.7103 112.345 85.8896C112.345 89.3517 108.069 90.5931 104.552 90.5931H88.0275L88.0413 80.6483ZM88.0413 104.869H101.683C102.924 104.869 108.345 105.228 110.069 112.152C110.607 114.276 111.807 121.2 112.621 123.421C113.434 125.903 116.731 130.869 120.248 130.869H142.51C141.018 132.867 139.387 134.757 137.628 136.524L128.565 134.579C126.455 134.124 124.372 135.476 123.917 137.586L121.765 147.628C114.846 150.762 107.332 152.366 99.736 152.33C92.1399 152.295 84.6411 150.62 77.7516 147.421L75.5999 137.379C75.1448 135.269 73.0758 133.917 70.9654 134.372L62.0965 136.276C60.4507 134.578 58.9208 132.772 57.5172 130.869H100.648C101.131 130.869 101.462 130.786 101.462 130.331V115.076C101.462 114.634 101.131 114.538 100.648 114.538H88.0275L88.0413 104.869ZM68.1379 139.807C69.2539 139.839 70.3134 140.305 71.0912 141.106C71.869 141.907 72.3038 142.98 72.3034 144.097C72.3034 145.234 71.8514 146.325 71.047 147.13C70.2425 147.934 69.1514 148.386 68.0137 148.386C66.876 148.386 65.7849 147.934 64.9805 147.13C64.176 146.325 63.7241 145.234 63.7241 144.097C63.7238 143.523 63.8388 142.954 64.062 142.426C64.2853 141.897 64.6125 141.419 65.024 141.019C65.4356 140.619 65.9233 140.305 66.4581 140.097C66.993 139.889 67.5642 139.79 68.1379 139.807V139.807ZM131.655 140C132.771 140.032 133.831 140.498 134.608 141.299C135.386 142.1 135.821 143.173 135.821 144.29C135.821 145.427 135.369 146.518 134.564 147.323C133.76 148.127 132.669 148.579 131.531 148.579C130.393 148.579 129.302 148.127 128.498 147.323C127.693 146.518 127.241 145.427 127.241 144.29C127.241 143.716 127.356 143.148 127.579 142.619C127.803 142.09 128.13 141.612 128.541 141.212C128.953 140.812 129.441 140.498 129.975 140.29C130.51 140.082 131.081 139.983 131.655 140V140Z" fill="black"/>
<path fill-rule="evenodd" clip-rule="evenodd" d="M161.559 100C161.559 116.326 155.073 131.984 143.529 143.529C131.984 155.073 116.326 161.559 100 161.559C83.6736 161.559 68.016 155.073 56.4715 143.529C44.927 131.984 38.4414 116.326 38.4414 100C38.4414 83.6736 44.927 68.016 56.4715 56.4715C68.016 44.927 83.6736 38.4414 100 38.4414C116.326 38.4414 131.984 44.927 143.529 56.4715C155.073 68.016 161.559 83.6736 161.559 100V100ZM160.4 94.0552L170 100L160.4 105.945L168.648 113.655L158.083 117.614L164.676 126.786L153.517 128.607L158.207 138.897L146.91 138.497L149.503 149.503L138.497 146.91L138.897 158.207L128.607 153.517L126.786 164.676L117.614 158.083L113.655 168.648L105.945 160.4L100 170L94.0552 160.4L86.3448 168.648L82.3862 158.083L73.2138 164.676L71.3931 153.517L61.1034 158.207L61.5034 146.91L50.4966 149.503L53.0897 138.497L41.7931 138.897L46.4828 128.607L35.3241 126.786L41.9172 117.614L31.3517 113.655L39.6 105.945L30 100L39.6 94.0552L31.3517 86.3448L41.9172 82.3862L35.3241 73.2138L46.4828 71.3931L41.7931 61.1034L53.0897 61.5034L50.4966 50.4966L61.5034 53.0897L61.1034 41.7931L71.3931 46.4828L73.2138 35.3241L82.3862 41.9172L86.3448 31.3517L94.0552 39.6L100 30L105.945 39.6L113.655 31.3517L117.614 41.9172L126.786 35.3241L128.607 46.4828L138.897 41.7931L138.497 53.0897L149.503 50.4966L146.91 61.5034L158.207 61.1034L153.517 71.3931L164.676 73.2138L158.083 82.3862L168.648 86.3448L160.4 94.0552Z" fill="black" stroke="black" stroke-width="3" stroke-linecap="round" stroke-linejoin="round"/>
</svg>
